<svg xmlns="http://www.w3.org/2000/svg" xmlns:xlink="http://www.w3.org/1999/xlink" width="24" zoomAndPan="magnify" viewBox="0 0 705 591.000005" height="788" preserveAspectRatio="xMidYMid meet" version="1.0"><defs><g/></defs><g fill="#cb3532" fill-opacity="1"><g transform="translate(121.151961, 312.77799)"><g><path d="M 32.71875 -75.515625 C 36.738281 -75.515625 40.664062 -74.929688 44.5 -73.765625 C 48.332031 -72.597656 51.179688 -71.445312 53.046875 -70.3125 L 55.734375 -68.515625 L 48.90625 -55.015625 C 48.363281 -55.378906 47.613281 -55.84375 46.65625 -56.40625 C 45.695312 -56.976562 43.898438 -57.742188 41.265625 -58.703125 C 38.628906 -59.660156 36.171875 -60.140625 33.890625 -60.140625 C 31.078125 -60.140625 28.90625 -59.539062 27.375 -58.34375 C 25.84375 -57.144531 25.078125 -55.53125 25.078125 -53.5 C 25.078125 -52.476562 25.4375 -51.53125 26.15625 -50.65625 C 26.875 -49.789062 28.101562 -48.863281 29.84375 -47.875 C 31.582031 -46.882812 33.109375 -46.085938 34.421875 -45.484375 C 35.742188 -44.890625 37.785156 -43.992188 40.546875 -42.796875 C 45.335938 -40.753906 49.425781 -37.976562 52.8125 -34.46875 C 56.207031 -30.96875 57.90625 -27 57.90625 -22.5625 C 57.90625 -18.3125 57.140625 -14.597656 55.609375 -11.421875 C 54.078125 -8.242188 51.976562 -5.753906 49.3125 -3.953125 C 46.644531 -2.160156 43.691406 -0.832031 40.453125 0.03125 C 37.222656 0.90625 33.71875 1.34375 29.9375 1.34375 C 26.695312 1.34375 23.519531 1.015625 20.40625 0.359375 C 17.289062 -0.296875 14.679688 -1.117188 12.578125 -2.109375 C 10.484375 -3.097656 8.597656 -4.070312 6.921875 -5.03125 C 5.242188 -5.988281 4.015625 -6.800781 3.234375 -7.46875 L 2.0625 -8.453125 L 10.515625 -22.65625 C 11.234375 -22.050781 12.222656 -21.285156 13.484375 -20.359375 C 14.742188 -19.429688 16.976562 -18.1875 20.1875 -16.625 C 23.394531 -15.070312 26.226562 -14.296875 28.6875 -14.296875 C 35.8125 -14.296875 39.375 -16.722656 39.375 -21.578125 C 39.375 -22.597656 39.117188 -23.539062 38.609375 -24.40625 C 38.097656 -25.28125 37.195312 -26.148438 35.90625 -27.015625 C 34.625 -27.890625 33.488281 -28.578125 32.5 -29.078125 C 31.507812 -29.585938 29.890625 -30.367188 27.640625 -31.421875 C 25.398438 -32.472656 23.738281 -33.269531 22.65625 -33.8125 C 18.15625 -36.019531 14.675781 -38.785156 12.21875 -42.109375 C 9.769531 -45.441406 8.546875 -49.023438 8.546875 -52.859375 C 8.546875 -59.515625 11 -64.953125 15.90625 -69.171875 C 20.820312 -73.398438 26.425781 -75.515625 32.71875 -75.515625 Z M 32.71875 -75.515625 "/></g></g></g><g fill="#cb3532" fill-opacity="1"><g transform="translate(173.108219, 312.77799)"><g><path d="M 9.75 -5.484375 C 4.625 -10.035156 2.0625 -15.878906 2.0625 -23.015625 C 2.0625 -30.148438 4.726562 -36.007812 10.0625 -40.59375 C 15.40625 -45.175781 22 -47.46875 29.84375 -47.46875 C 37.582031 -47.46875 44.101562 -45.160156 49.40625 -40.546875 C 54.707031 -35.929688 57.359375 -30.085938 57.359375 -23.015625 C 57.359375 -15.941406 54.765625 -10.113281 49.578125 -5.53125 C 44.398438 -0.945312 37.820312 1.34375 29.84375 1.34375 C 21.570312 1.34375 14.875 -0.929688 9.75 -5.484375 Z M 22.0625 -30.828125 C 20 -28.796875 18.96875 -26.191406 18.96875 -23.015625 C 18.96875 -19.835938 19.957031 -17.242188 21.9375 -15.234375 C 23.914062 -13.234375 26.523438 -12.234375 29.765625 -12.234375 C 32.878906 -12.234375 35.4375 -13.25 37.4375 -15.28125 C 39.445312 -17.320312 40.453125 -19.898438 40.453125 -23.015625 C 40.453125 -26.191406 39.414062 -28.796875 37.34375 -30.828125 C 35.28125 -32.867188 32.753906 -33.890625 29.765625 -33.890625 C 26.703125 -33.890625 24.132812 -32.867188 22.0625 -30.828125 Z M 22.0625 -30.828125 "/></g></g></g><g fill="#cb3532" fill-opacity="1"><g transform="translate(224.075633, 312.77799)"><g><path d="M 5.390625 0 L 5.390625 -77.3125 L 21.3125 -77.3125 L 21.3125 0 Z M 5.390625 0 "/></g></g></g><g fill="#cb3532" fill-opacity="1"><g transform="translate(242.321638, 312.77799)"><g><path d="M 52.0625 -20.859375 L 18.609375 -20.859375 C 18.609375 -17.617188 19.65625 -15.21875 21.75 -13.65625 C 23.851562 -12.101562 26.132812 -11.328125 28.59375 -11.328125 C 31.164062 -11.328125 33.203125 -11.671875 34.703125 -12.359375 C 36.203125 -13.046875 37.910156 -14.410156 39.828125 -16.453125 L 51.34375 -10.703125 C 46.539062 -2.671875 38.566406 1.34375 27.421875 1.34375 C 20.472656 1.34375 14.507812 -1.035156 9.53125 -5.796875 C 4.550781 -10.566406 2.0625 -16.304688 2.0625 -23.015625 C 2.0625 -29.722656 4.550781 -35.472656 9.53125 -40.265625 C 14.507812 -45.066406 20.472656 -47.46875 27.421875 -47.46875 C 34.734375 -47.46875 40.679688 -45.351562 45.265625 -41.125 C 49.847656 -36.90625 52.140625 -30.867188 52.140625 -23.015625 C 52.140625 -21.929688 52.113281 -21.210938 52.0625 -20.859375 Z M 19.0625 -29.671875 L 36.59375 -29.671875 C 36.226562 -32.066406 35.28125 -33.90625 33.75 -35.1875 C 32.226562 -36.476562 30.269531 -37.125 27.875 -37.125 C 25.238281 -37.125 23.140625 -36.4375 21.578125 -35.0625 C 20.015625 -33.6875 19.175781 -31.890625 19.0625 -29.671875 Z M 19.0625 -29.671875 "/></g></g></g><g fill="#cb3532" fill-opacity="1"><g transform="translate(288.075199, 312.77799)"><g/></g></g><g fill="#cb3532" fill-opacity="1"><g transform="translate(304.163751, 312.77799)"><g><path d="M 32.71875 -75.515625 C 36.738281 -75.515625 40.664062 -74.929688 44.5 -73.765625 C 48.332031 -72.597656 51.179688 -71.445312 53.046875 -70.3125 L 55.734375 -68.515625 L 48.90625 -55.015625 C 48.363281 -55.378906 47.613281 -55.84375 46.65625 -56.40625 C 45.695312 -56.976562 43.898438 -57.742188 41.265625 -58.703125 C 38.628906 -59.660156 36.171875 -60.140625 33.890625 -60.140625 C 31.078125 -60.140625 28.90625 -59.539062 27.375 -58.34375 C 25.84375 -57.144531 25.078125 -55.53125 25.078125 -53.5 C 25.078125 -52.476562 25.4375 -51.53125 26.15625 -50.65625 C 26.875 -49.789062 28.101562 -48.863281 29.84375 -47.875 C 31.582031 -46.882812 33.109375 -46.085938 34.421875 -45.484375 C 35.742188 -44.890625 37.785156 -43.992188 40.546875 -42.796875 C 45.335938 -40.753906 49.425781 -37.976562 52.8125 -34.46875 C 56.207031 -30.96875 57.90625 -27 57.90625 -22.5625 C 57.90625 -18.3125 57.140625 -14.597656 55.609375 -11.421875 C 54.078125 -8.242188 51.976562 -5.753906 49.3125 -3.953125 C 46.644531 -2.160156 43.691406 -0.832031 40.453125 0.03125 C 37.222656 0.90625 33.71875 1.34375 29.9375 1.34375 C 26.695312 1.34375 23.519531 1.015625 20.40625 0.359375 C 17.289062 -0.296875 14.679688 -1.117188 12.578125 -2.109375 C 10.484375 -3.097656 8.597656 -4.070312 6.921875 -5.03125 C 5.242188 -5.988281 4.015625 -6.800781 3.234375 -7.46875 L 2.0625 -8.453125 L 10.515625 -22.65625 C 11.234375 -22.050781 12.222656 -21.285156 13.484375 -20.359375 C 14.742188 -19.429688 16.976562 -18.1875 20.1875 -16.625 C 23.394531 -15.070312 26.226562 -14.296875 28.6875 -14.296875 C 35.8125 -14.296875 39.375 -16.722656 39.375 -21.578125 C 39.375 -22.597656 39.117188 -23.539062 38.609375 -24.40625 C 38.097656 -25.28125 37.195312 -26.148438 35.90625 -27.015625 C 34.625 -27.890625 33.488281 -28.578125 32.5 -29.078125 C 31.507812 -29.585938 29.890625 -30.367188 27.640625 -31.421875 C 25.398438 -32.472656 23.738281 -33.269531 22.65625 -33.8125 C 18.15625 -36.019531 14.675781 -38.785156 12.21875 -42.109375 C 9.769531 -45.441406 8.546875 -49.023438 8.546875 -52.859375 C 8.546875 -59.515625 11 -64.953125 15.90625 -69.171875 C 20.820312 -73.398438 26.425781 -75.515625 32.71875 -75.515625 Z M 32.71875 -75.515625 "/></g></g></g><g fill="#cb3532" fill-opacity="1"><g transform="translate(356.119999, 312.77799)"><g><path d="M 9.75 -5.484375 C 4.625 -10.035156 2.0625 -15.878906 2.0625 -23.015625 C 2.0625 -30.148438 4.726562 -36.007812 10.0625 -40.59375 C 15.40625 -45.175781 22 -47.46875 29.84375 -47.46875 C 37.582031 -47.46875 44.101562 -45.160156 49.40625 -40.546875 C 54.707031 -35.929688 57.359375 -30.085938 57.359375 -23.015625 C 57.359375 -15.941406 54.765625 -10.113281 49.578125 -5.53125 C 44.398438 -0.945312 37.820312 1.34375 29.84375 1.34375 C 21.570312 1.34375 14.875 -0.929688 9.75 -5.484375 Z M 22.0625 -30.828125 C 20 -28.796875 18.96875 -26.191406 18.96875 -23.015625 C 18.96875 -19.835938 19.957031 -17.242188 21.9375 -15.234375 C 23.914062 -13.234375 26.523438 -12.234375 29.765625 -12.234375 C 32.878906 -12.234375 35.4375 -13.25 37.4375 -15.28125 C 39.445312 -17.320312 40.453125 -19.898438 40.453125 -23.015625 C 40.453125 -26.191406 39.414062 -28.796875 37.34375 -30.828125 C 35.28125 -32.867188 32.753906 -33.890625 29.765625 -33.890625 C 26.703125 -33.890625 24.132812 -32.867188 22.0625 -30.828125 Z M 22.0625 -30.828125 "/></g></g></g><g fill="#cb3532" fill-opacity="1"><g transform="translate(407.087423, 312.77799)"><g><path d="M 20.40625 -46.125 L 20.40625 -24.1875 C 20.40625 -19.632812 21.09375 -16.394531 22.46875 -14.46875 C 23.851562 -12.550781 26.191406 -11.59375 29.484375 -11.59375 C 32.785156 -11.59375 35.125 -12.550781 36.5 -14.46875 C 37.875 -16.394531 38.5625 -19.632812 38.5625 -24.1875 L 38.5625 -46.125 L 54.484375 -46.125 L 54.484375 -20.3125 C 54.484375 -12.644531 52.488281 -7.117188 48.5 -3.734375 C 44.519531 -0.347656 38.179688 1.34375 29.484375 1.34375 C 20.796875 1.34375 14.457031 -0.347656 10.46875 -3.734375 C 6.488281 -7.117188 4.5 -12.644531 4.5 -20.3125 L 4.5 -46.125 Z M 20.40625 -46.125 "/></g></g></g><g fill="#cb3532" fill-opacity="1"><g transform="translate(457.605363, 312.77799)"><g><path d="M 5.390625 0 L 5.390625 -46.125 L 21.3125 -46.125 L 21.3125 -39.46875 L 21.484375 -39.46875 C 21.609375 -39.707031 21.800781 -40.003906 22.0625 -40.359375 C 22.332031 -40.722656 22.914062 -41.351562 23.8125 -42.25 C 24.71875 -43.15625 25.679688 -43.96875 26.703125 -44.6875 C 27.722656 -45.40625 29.039062 -46.046875 30.65625 -46.609375 C 32.269531 -47.179688 33.921875 -47.46875 35.609375 -47.46875 C 37.335938 -47.46875 39.039062 -47.226562 40.71875 -46.75 C 42.40625 -46.269531 43.632812 -45.789062 44.40625 -45.3125 L 45.671875 -44.59375 L 39.015625 -31.109375 C 37.035156 -32.785156 34.28125 -33.625 30.75 -33.625 C 28.832031 -33.625 27.179688 -33.203125 25.796875 -32.359375 C 24.421875 -31.523438 23.445312 -30.507812 22.875 -29.3125 C 22.3125 -28.113281 21.910156 -27.09375 21.671875 -26.25 C 21.429688 -25.414062 21.3125 -24.757812 21.3125 -24.28125 L 21.3125 0 Z M 5.390625 0 "/></g></g></g><g fill="#cb3532" fill-opacity="1"><g transform="translate(493.920052, 312.77799)"><g><path d="M 29.9375 -34.4375 C 26.9375 -34.4375 24.359375 -33.328125 22.203125 -31.109375 C 20.046875 -28.890625 18.96875 -26.222656 18.96875 -23.109375 C 18.96875 -19.929688 20.046875 -17.234375 22.203125 -15.015625 C 24.359375 -12.796875 26.9375 -11.6875 29.9375 -11.6875 C 31.375 -11.6875 32.738281 -11.863281 34.03125 -12.21875 C 35.320312 -12.582031 36.265625 -12.945312 36.859375 -13.3125 L 37.671875 -13.84375 L 43.0625 -2.78125 C 42.644531 -2.488281 42.0625 -2.113281 41.3125 -1.65625 C 40.5625 -1.207031 38.851562 -0.597656 36.1875 0.171875 C 33.519531 0.953125 30.65625 1.34375 27.59375 1.34375 C 20.820312 1.34375 14.875 -1.035156 9.75 -5.796875 C 4.625 -10.566406 2.0625 -16.273438 2.0625 -22.921875 C 2.0625 -29.640625 4.625 -35.410156 9.75 -40.234375 C 14.875 -45.054688 20.820312 -47.46875 27.59375 -47.46875 C 30.65625 -47.46875 33.472656 -47.109375 36.046875 -46.390625 C 38.628906 -45.671875 40.457031 -44.953125 41.53125 -44.234375 L 43.0625 -43.15625 L 37.671875 -32.28125 C 35.691406 -33.71875 33.113281 -34.4375 29.9375 -34.4375 Z M 29.9375 -34.4375 "/></g></g></g><g fill="#cb3532" fill-opacity="1"><g transform="translate(529.605502, 312.77799)"><g><path d="M 52.0625 -20.859375 L 18.609375 -20.859375 C 18.609375 -17.617188 19.65625 -15.21875 21.75 -13.65625 C 23.851562 -12.101562 26.132812 -11.328125 28.59375 -11.328125 C 31.164062 -11.328125 33.203125 -11.671875 34.703125 -12.359375 C 36.203125 -13.046875 37.910156 -14.410156 39.828125 -16.453125 L 51.34375 -10.703125 C 46.539062 -2.671875 38.566406 1.34375 27.421875 1.34375 C 20.472656 1.34375 14.507812 -1.035156 9.53125 -5.796875 C 4.550781 -10.566406 2.0625 -16.304688 2.0625 -23.015625 C 2.0625 -29.722656 4.550781 -35.472656 9.53125 -40.265625 C 14.507812 -45.066406 20.472656 -47.46875 27.421875 -47.46875 C 34.734375 -47.46875 40.679688 -45.351562 45.265625 -41.125 C 49.847656 -36.90625 52.140625 -30.867188 52.140625 -23.015625 C 52.140625 -21.929688 52.113281 -21.210938 52.0625 -20.859375 Z M 19.0625 -29.671875 L 36.59375 -29.671875 C 36.226562 -32.066406 35.28125 -33.90625 33.75 -35.1875 C 32.226562 -36.476562 30.269531 -37.125 27.875 -37.125 C 25.238281 -37.125 23.140625 -36.4375 21.578125 -35.0625 C 20.015625 -33.6875 19.175781 -31.890625 19.0625 -29.671875 Z M 19.0625 -29.671875 "/></g></g></g><g fill="#231f20" fill-opacity="1"><g transform="translate(196.6628, 350.388286)"><g><path d="M 8.75 -6.90625 C 9.414062 -6.675781 9.960938 -6.300781 10.390625 -5.78125 C 10.816406 -5.257812 11.03125 -4.578125 11.03125 -3.734375 C 11.03125 -2.390625 10.640625 -1.429688 9.859375 -0.859375 C 9.085938 -0.285156 8.140625 0 7.015625 0 L 2.375 0 C 2.132812 0 1.925781 -0.0820312 1.75 -0.25 C 1.582031 -0.414062 1.5 -0.625 1.5 -0.875 L 1.5 -11.796875 C 1.5 -12.035156 1.582031 -12.238281 1.75 -12.40625 C 1.925781 -12.582031 2.132812 -12.671875 2.375 -12.671875 L 7.015625 -12.671875 C 8.117188 -12.671875 8.957031 -12.394531 9.53125 -11.84375 C 10.101562 -11.300781 10.390625 -10.519531 10.390625 -9.5 C 10.390625 -8.914062 10.25 -8.398438 9.96875 -7.953125 C 9.6875 -7.503906 9.28125 -7.15625 8.75 -6.90625 Z M 8.515625 -9.234375 C 8.515625 -9.796875 8.359375 -10.222656 8.046875 -10.515625 C 7.742188 -10.816406 7.316406 -10.96875 6.765625 -10.96875 L 3.34375 -10.96875 L 3.34375 -7.4375 L 6.796875 -7.4375 C 7.296875 -7.445312 7.707031 -7.601562 8.03125 -7.90625 C 8.351562 -8.21875 8.515625 -8.660156 8.515625 -9.234375 Z M 7 -1.671875 C 7.664062 -1.671875 8.195312 -1.84375 8.59375 -2.1875 C 8.988281 -2.53125 9.1875 -3.046875 9.1875 -3.734375 C 9.1875 -5.066406 8.425781 -5.734375 6.90625 -5.734375 L 3.34375 -5.734375 L 3.34375 -1.671875 Z M 7 -1.671875 "/></g></g></g><g fill="#231f20" fill-opacity="1"><g transform="translate(220.27193, 350.388286)"><g><path d="M 9.609375 -5.109375 C 9.597656 -4.890625 9.503906 -4.703125 9.328125 -4.546875 C 9.160156 -4.398438 8.960938 -4.328125 8.734375 -4.328125 L 2.375 -4.328125 C 2.457031 -3.441406 2.789062 -2.734375 3.375 -2.203125 C 3.957031 -1.671875 4.671875 -1.40625 5.515625 -1.40625 C 6.097656 -1.40625 6.566406 -1.488281 6.921875 -1.65625 C 7.285156 -1.832031 7.609375 -2.050781 7.890625 -2.3125 C 8.066406 -2.425781 8.238281 -2.484375 8.40625 -2.484375 C 8.613281 -2.484375 8.785156 -2.410156 8.921875 -2.265625 C 9.066406 -2.117188 9.140625 -1.945312 9.140625 -1.75 C 9.140625 -1.5 9.019531 -1.269531 8.78125 -1.0625 C 8.425781 -0.71875 7.957031 -0.421875 7.375 -0.171875 C 6.800781 0.0664062 6.210938 0.1875 5.609375 0.1875 C 4.628906 0.1875 3.769531 -0.015625 3.03125 -0.421875 C 2.289062 -0.835938 1.71875 -1.410156 1.3125 -2.140625 C 0.90625 -2.878906 0.703125 -3.71875 0.703125 -4.65625 C 0.703125 -5.664062 0.910156 -6.550781 1.328125 -7.3125 C 1.742188 -8.082031 2.289062 -8.671875 2.96875 -9.078125 C 3.65625 -9.492188 4.390625 -9.703125 5.171875 -9.703125 C 5.941406 -9.703125 6.664062 -9.5 7.34375 -9.09375 C 8.019531 -8.695312 8.5625 -8.148438 8.96875 -7.453125 C 9.382812 -6.753906 9.597656 -5.972656 9.609375 -5.109375 Z M 5.171875 -8.109375 C 4.492188 -8.109375 3.90625 -7.914062 3.40625 -7.53125 C 2.914062 -7.15625 2.59375 -6.566406 2.4375 -5.765625 L 7.78125 -5.765625 L 7.78125 -5.921875 C 7.71875 -6.554688 7.429688 -7.078125 6.921875 -7.484375 C 6.410156 -7.898438 5.828125 -8.109375 5.171875 -8.109375 Z M 5.171875 -8.109375 "/></g></g></g><g fill="#231f20" fill-opacity="1"><g transform="translate(242.379941, 350.388286)"><g><path d="M 8.34375 -9.578125 C 8.59375 -9.578125 8.796875 -9.488281 8.953125 -9.3125 C 9.117188 -9.144531 9.203125 -8.941406 9.203125 -8.703125 L 9.203125 -0.890625 C 9.203125 0.617188 8.785156 1.75 7.953125 2.5 C 7.128906 3.25 6.035156 3.625 4.671875 3.625 C 4.222656 3.625 3.78125 3.578125 3.34375 3.484375 C 2.914062 3.398438 2.5625 3.285156 2.28125 3.140625 C 1.832031 2.941406 1.609375 2.664062 1.609375 2.3125 C 1.609375 2.25 1.617188 2.171875 1.640625 2.078125 C 1.710938 1.867188 1.816406 1.710938 1.953125 1.609375 C 2.085938 1.503906 2.238281 1.453125 2.40625 1.453125 C 2.5 1.453125 2.585938 1.46875 2.671875 1.5 C 3.046875 1.664062 3.378906 1.796875 3.671875 1.890625 C 3.960938 1.992188 4.300781 2.046875 4.6875 2.046875 C 6.550781 2.046875 7.484375 1.085938 7.484375 -0.828125 L 7.484375 -1.1875 C 7.160156 -0.757812 6.742188 -0.421875 6.234375 -0.171875 C 5.722656 0.0664062 5.132812 0.1875 4.46875 0.1875 C 3.46875 0.1875 2.6875 -0.128906 2.125 -0.765625 C 1.5625 -1.410156 1.28125 -2.253906 1.28125 -3.296875 L 1.28125 -8.703125 C 1.28125 -8.953125 1.359375 -9.160156 1.515625 -9.328125 C 1.671875 -9.492188 1.878906 -9.578125 2.140625 -9.578125 C 2.390625 -9.578125 2.59375 -9.488281 2.75 -9.3125 C 2.914062 -9.144531 3 -8.941406 3 -8.703125 L 3 -3.75 C 3 -2.945312 3.171875 -2.351562 3.515625 -1.96875 C 3.867188 -1.59375 4.40625 -1.40625 5.125 -1.40625 C 5.8125 -1.40625 6.375 -1.625 6.8125 -2.0625 C 7.257812 -2.5 7.484375 -3.0625 7.484375 -3.75 L 7.484375 -8.703125 C 7.484375 -8.953125 7.5625 -9.160156 7.71875 -9.328125 C 7.882812 -9.492188 8.09375 -9.578125 8.34375 -9.578125 Z M 8.34375 -9.578125 "/></g></g></g><g fill="#231f20" fill-opacity="1"><g transform="translate(264.650727, 350.388286)"><g><path d="M 10.265625 -4.734375 C 10.265625 -3.796875 10.050781 -2.953125 9.625 -2.203125 C 9.207031 -1.453125 8.628906 -0.863281 7.890625 -0.4375 C 7.160156 -0.0195312 6.359375 0.1875 5.484375 0.1875 C 4.597656 0.1875 3.789062 -0.0195312 3.0625 -0.4375 C 2.332031 -0.863281 1.753906 -1.453125 1.328125 -2.203125 C 0.910156 -2.953125 0.703125 -3.796875 0.703125 -4.734375 C 0.703125 -5.679688 0.910156 -6.535156 1.328125 -7.296875 C 1.753906 -8.054688 2.332031 -8.644531 3.0625 -9.0625 C 3.789062 -9.488281 4.597656 -9.703125 5.484375 -9.703125 C 6.359375 -9.703125 7.160156 -9.488281 7.890625 -9.0625 C 8.628906 -8.644531 9.207031 -8.054688 9.625 -7.296875 C 10.050781 -6.535156 10.265625 -5.679688 10.265625 -4.734375 Z M 8.546875 -4.734375 C 8.546875 -5.390625 8.40625 -5.972656 8.125 -6.484375 C 7.851562 -6.992188 7.484375 -7.390625 7.015625 -7.671875 C 6.554688 -7.960938 6.046875 -8.109375 5.484375 -8.109375 C 4.910156 -8.109375 4.390625 -7.960938 3.921875 -7.671875 C 3.460938 -7.390625 3.097656 -6.992188 2.828125 -6.484375 C 2.554688 -5.972656 2.421875 -5.390625 2.421875 -4.734375 C 2.421875 -4.097656 2.554688 -3.523438 2.828125 -3.015625 C 3.097656 -2.515625 3.460938 -2.117188 3.921875 -1.828125 C 4.390625 -1.546875 4.910156 -1.40625 5.484375 -1.40625 C 6.046875 -1.40625 6.554688 -1.546875 7.015625 -1.828125 C 7.484375 -2.117188 7.851562 -2.515625 8.125 -3.015625 C 8.40625 -3.523438 8.546875 -4.097656 8.546875 -4.734375 Z M 8.546875 -4.734375 "/></g></g></g><g fill="#231f20" fill-opacity="1"><g transform="translate(287.409837, 350.388286)"><g><path d="M 6.109375 -9.703125 C 8.285156 -9.703125 9.375 -8.398438 9.375 -5.796875 L 9.375 -0.875 C 9.375 -0.625 9.289062 -0.414062 9.125 -0.25 C 8.96875 -0.0820312 8.757812 0 8.5 0 C 8.257812 0 8.054688 -0.0820312 7.890625 -0.25 C 7.734375 -0.414062 7.65625 -0.625 7.65625 -0.875 L 7.65625 -5.765625 C 7.65625 -6.484375 7.488281 -7.050781 7.15625 -7.46875 C 6.832031 -7.894531 6.304688 -8.109375 5.578125 -8.109375 C 5.085938 -8.109375 4.644531 -8 4.25 -7.78125 C 3.863281 -7.570312 3.554688 -7.289062 3.328125 -6.9375 C 3.109375 -6.582031 3 -6.191406 3 -5.765625 L 3 -0.875 C 3 -0.625 2.914062 -0.414062 2.75 -0.25 C 2.59375 -0.0820312 2.390625 0 2.140625 0 C 1.878906 0 1.671875 -0.078125 1.515625 -0.234375 C 1.359375 -0.398438 1.28125 -0.613281 1.28125 -0.875 L 1.28125 -8.609375 C 1.28125 -8.847656 1.359375 -9.050781 1.515625 -9.21875 C 1.679688 -9.394531 1.890625 -9.484375 2.140625 -9.484375 C 2.390625 -9.484375 2.59375 -9.394531 2.75 -9.21875 C 2.914062 -9.050781 3 -8.847656 3 -8.609375 L 3 -7.984375 C 3.3125 -8.460938 3.75 -8.867188 4.3125 -9.203125 C 4.875 -9.535156 5.472656 -9.703125 6.109375 -9.703125 Z M 6.109375 -9.703125 "/></g></g></g><g fill="#231f20" fill-opacity="1"><g transform="translate(309.861482, 350.388286)"><g><path d="M 8.96875 -13.390625 C 9.226562 -13.390625 9.4375 -13.304688 9.59375 -13.140625 C 9.757812 -12.984375 9.84375 -12.773438 9.84375 -12.515625 L 9.84375 -0.875 C 9.84375 -0.625 9.757812 -0.414062 9.59375 -0.25 C 9.4375 -0.0820312 9.226562 0 8.96875 0 C 8.71875 0 8.515625 -0.078125 8.359375 -0.234375 C 8.203125 -0.398438 8.125 -0.613281 8.125 -0.875 L 8.125 -1.375 C 7.820312 -0.9375 7.394531 -0.566406 6.84375 -0.265625 C 6.300781 0.0351562 5.710938 0.1875 5.078125 0.1875 C 4.265625 0.1875 3.523438 -0.0195312 2.859375 -0.4375 C 2.191406 -0.863281 1.664062 -1.453125 1.28125 -2.203125 C 0.894531 -2.960938 0.703125 -3.816406 0.703125 -4.765625 C 0.703125 -5.703125 0.890625 -6.546875 1.265625 -7.296875 C 1.648438 -8.054688 2.171875 -8.644531 2.828125 -9.0625 C 3.492188 -9.488281 4.226562 -9.703125 5.03125 -9.703125 C 5.664062 -9.703125 6.253906 -9.566406 6.796875 -9.296875 C 7.347656 -9.035156 7.789062 -8.691406 8.125 -8.265625 L 8.125 -12.515625 C 8.125 -12.773438 8.203125 -12.984375 8.359375 -13.140625 C 8.515625 -13.304688 8.71875 -13.390625 8.96875 -13.390625 Z M 5.28125 -1.40625 C 5.851562 -1.40625 6.359375 -1.550781 6.796875 -1.84375 C 7.234375 -2.132812 7.578125 -2.53125 7.828125 -3.03125 C 8.078125 -3.539062 8.203125 -4.117188 8.203125 -4.765625 C 8.203125 -5.390625 8.078125 -5.957031 7.828125 -6.46875 C 7.578125 -6.976562 7.234375 -7.378906 6.796875 -7.671875 C 6.359375 -7.960938 5.851562 -8.109375 5.28125 -8.109375 C 4.71875 -8.109375 4.210938 -7.960938 3.765625 -7.671875 C 3.328125 -7.378906 2.984375 -6.976562 2.734375 -6.46875 C 2.492188 -5.957031 2.375 -5.390625 2.375 -4.765625 C 2.375 -4.117188 2.492188 -3.539062 2.734375 -3.03125 C 2.984375 -2.53125 3.328125 -2.132812 3.765625 -1.84375 C 4.210938 -1.550781 4.71875 -1.40625 5.28125 -1.40625 Z M 5.28125 -1.40625 "/></g></g></g><g fill="#231f20" fill-opacity="1"><g transform="translate(332.765282, 350.388286)"><g/></g></g><g fill="#231f20" fill-opacity="1"><g transform="translate(349.574184, 350.388286)"><g><path d="M 13.015625 -6.328125 C 13.015625 -5.109375 12.75 -4.003906 12.21875 -3.015625 C 11.695312 -2.023438 10.972656 -1.242188 10.046875 -0.671875 C 9.117188 -0.0976562 8.066406 0.1875 6.890625 0.1875 C 5.722656 0.1875 4.675781 -0.0976562 3.75 -0.671875 C 2.820312 -1.242188 2.09375 -2.023438 1.5625 -3.015625 C 1.039062 -4.003906 0.78125 -5.109375 0.78125 -6.328125 C 0.78125 -7.546875 1.039062 -8.648438 1.5625 -9.640625 C 2.09375 -10.628906 2.820312 -11.410156 3.75 -11.984375 C 4.675781 -12.554688 5.722656 -12.84375 6.890625 -12.84375 C 8.066406 -12.84375 9.117188 -12.554688 10.046875 -11.984375 C 10.972656 -11.410156 11.695312 -10.628906 12.21875 -9.640625 C 12.75 -8.648438 13.015625 -7.546875 13.015625 -6.328125 Z M 11.140625 -6.328125 C 11.140625 -7.234375 10.957031 -8.050781 10.59375 -8.78125 C 10.238281 -9.507812 9.738281 -10.082031 9.09375 -10.5 C 8.445312 -10.914062 7.710938 -11.125 6.890625 -11.125 C 6.066406 -11.125 5.332031 -10.914062 4.6875 -10.5 C 4.050781 -10.09375 3.550781 -9.523438 3.1875 -8.796875 C 2.820312 -8.066406 2.640625 -7.242188 2.640625 -6.328125 C 2.640625 -5.421875 2.820312 -4.601562 3.1875 -3.875 C 3.550781 -3.144531 4.050781 -2.570312 4.6875 -2.15625 C 5.332031 -1.738281 6.066406 -1.53125 6.890625 -1.53125 C 7.710938 -1.53125 8.445312 -1.738281 9.09375 -2.15625 C 9.738281 -2.570312 10.238281 -3.144531 10.59375 -3.875 C 10.957031 -4.601562 11.140625 -5.421875 11.140625 -6.328125 Z M 11.140625 -6.328125 "/></g></g></g><g fill="#231f20" fill-opacity="1"><g transform="translate(375.154655, 350.388286)"><g><path d="M 6 -9.703125 C 6.320312 -9.703125 6.597656 -9.617188 6.828125 -9.453125 C 7.054688 -9.285156 7.171875 -9.082031 7.171875 -8.84375 C 7.171875 -8.550781 7.09375 -8.332031 6.9375 -8.1875 C 6.789062 -8.039062 6.609375 -7.96875 6.390625 -7.96875 C 6.273438 -7.96875 6.113281 -8 5.90625 -8.0625 C 5.644531 -8.15625 5.441406 -8.203125 5.296875 -8.203125 C 4.921875 -8.203125 4.554688 -8.070312 4.203125 -7.8125 C 3.847656 -7.550781 3.554688 -7.191406 3.328125 -6.734375 C 3.109375 -6.285156 3 -5.785156 3 -5.234375 L 3 -0.875 C 3 -0.625 2.914062 -0.414062 2.75 -0.25 C 2.59375 -0.0820312 2.390625 0 2.140625 0 C 1.878906 0 1.671875 -0.078125 1.515625 -0.234375 C 1.359375 -0.398438 1.28125 -0.613281 1.28125 -0.875 L 1.28125 -8.609375 C 1.28125 -8.847656 1.359375 -9.050781 1.515625 -9.21875 C 1.679688 -9.394531 1.890625 -9.484375 2.140625 -9.484375 C 2.390625 -9.484375 2.59375 -9.394531 2.75 -9.21875 C 2.914062 -9.050781 3 -8.847656 3 -8.609375 L 3 -7.6875 C 3.269531 -8.28125 3.671875 -8.757812 4.203125 -9.125 C 4.734375 -9.5 5.332031 -9.691406 6 -9.703125 Z M 6 -9.703125 "/></g></g></g><g fill="#231f20" fill-opacity="1"><g transform="translate(394.423231, 350.388286)"><g><path d="M 8.96875 -13.390625 C 9.226562 -13.390625 9.4375 -13.304688 9.59375 -13.140625 C 9.757812 -12.984375 9.84375 -12.773438 9.84375 -12.515625 L 9.84375 -0.875 C 9.84375 -0.625 9.757812 -0.414062 9.59375 -0.25 C 9.4375 -0.0820312 9.226562 0 8.96875 0 C 8.71875 0 8.515625 -0.078125 8.359375 -0.234375 C 8.203125 -0.398438 8.125 -0.613281 8.125 -0.875 L 8.125 -1.375 C 7.820312 -0.9375 7.394531 -0.566406 6.84375 -0.265625 C 6.300781 0.0351562 5.710938 0.1875 5.078125 0.1875 C 4.265625 0.1875 3.523438 -0.0195312 2.859375 -0.4375 C 2.191406 -0.863281 1.664062 -1.453125 1.28125 -2.203125 C 0.894531 -2.960938 0.703125 -3.816406 0.703125 -4.765625 C 0.703125 -5.703125 0.890625 -6.546875 1.265625 -7.296875 C 1.648438 -8.054688 2.171875 -8.644531 2.828125 -9.0625 C 3.492188 -9.488281 4.226562 -9.703125 5.03125 -9.703125 C 5.664062 -9.703125 6.253906 -9.566406 6.796875 -9.296875 C 7.347656 -9.035156 7.789062 -8.691406 8.125 -8.265625 L 8.125 -12.515625 C 8.125 -12.773438 8.203125 -12.984375 8.359375 -13.140625 C 8.515625 -13.304688 8.71875 -13.390625 8.96875 -13.390625 Z M 5.28125 -1.40625 C 5.851562 -1.40625 6.359375 -1.550781 6.796875 -1.84375 C 7.234375 -2.132812 7.578125 -2.53125 7.828125 -3.03125 C 8.078125 -3.539062 8.203125 -4.117188 8.203125 -4.765625 C 8.203125 -5.390625 8.078125 -5.957031 7.828125 -6.46875 C 7.578125 -6.976562 7.234375 -7.378906 6.796875 -7.671875 C 6.359375 -7.960938 5.851562 -8.109375 5.28125 -8.109375 C 4.71875 -8.109375 4.210938 -7.960938 3.765625 -7.671875 C 3.328125 -7.378906 2.984375 -6.976562 2.734375 -6.46875 C 2.492188 -5.957031 2.375 -5.390625 2.375 -4.765625 C 2.375 -4.117188 2.492188 -3.539062 2.734375 -3.03125 C 2.984375 -2.53125 3.328125 -2.132812 3.765625 -1.84375 C 4.210938 -1.550781 4.71875 -1.40625 5.28125 -1.40625 Z M 5.28125 -1.40625 "/></g></g></g><g fill="#231f20" fill-opacity="1"><g transform="translate(417.327042, 350.388286)"><g><path d="M 2.90625 -0.875 C 2.90625 -0.625 2.820312 -0.414062 2.65625 -0.25 C 2.5 -0.0820312 2.296875 0 2.046875 0 C 1.804688 0 1.601562 -0.0820312 1.4375 -0.25 C 1.269531 -0.414062 1.1875 -0.625 1.1875 -0.875 L 1.1875 -8.703125 C 1.1875 -8.941406 1.269531 -9.144531 1.4375 -9.3125 C 1.601562 -9.488281 1.804688 -9.578125 2.046875 -9.578125 C 2.296875 -9.578125 2.5 -9.488281 2.65625 -9.3125 C 2.820312 -9.144531 2.90625 -8.941406 2.90625 -8.703125 Z M 2.046875 -10.765625 C 1.691406 -10.765625 1.4375 -10.828125 1.28125 -10.953125 C 1.132812 -11.078125 1.0625 -11.28125 1.0625 -11.5625 L 1.0625 -11.84375 C 1.0625 -12.132812 1.140625 -12.335938 1.296875 -12.453125 C 1.460938 -12.578125 1.71875 -12.640625 2.0625 -12.640625 C 2.394531 -12.640625 2.632812 -12.578125 2.78125 -12.453125 C 2.9375 -12.328125 3.015625 -12.125 3.015625 -11.84375 L 3.015625 -11.5625 C 3.015625 -11.269531 2.9375 -11.0625 2.78125 -10.9375 C 2.625 -10.820312 2.378906 -10.765625 2.046875 -10.765625 Z M 2.046875 -10.765625 "/></g></g></g><g fill="#231f20" fill-opacity="1"><g transform="translate(433.231661, 350.388286)"><g><path d="M 6.109375 -9.703125 C 8.285156 -9.703125 9.375 -8.398438 9.375 -5.796875 L 9.375 -0.875 C 9.375 -0.625 9.289062 -0.414062 9.125 -0.25 C 8.96875 -0.0820312 8.757812 0 8.5 0 C 8.257812 0 8.054688 -0.0820312 7.890625 -0.25 C 7.734375 -0.414062 7.65625 -0.625 7.65625 -0.875 L 7.65625 -5.765625 C 7.65625 -6.484375 7.488281 -7.050781 7.15625 -7.46875 C 6.832031 -7.894531 6.304688 -8.109375 5.578125 -8.109375 C 5.085938 -8.109375 4.644531 -8 4.25 -7.78125 C 3.863281 -7.570312 3.554688 -7.289062 3.328125 -6.9375 C 3.109375 -6.582031 3 -6.191406 3 -5.765625 L 3 -0.875 C 3 -0.625 2.914062 -0.414062 2.75 -0.25 C 2.59375 -0.0820312 2.390625 0 2.140625 0 C 1.878906 0 1.671875 -0.078125 1.515625 -0.234375 C 1.359375 -0.398438 1.28125 -0.613281 1.28125 -0.875 L 1.28125 -8.609375 C 1.28125 -8.847656 1.359375 -9.050781 1.515625 -9.21875 C 1.679688 -9.394531 1.890625 -9.484375 2.140625 -9.484375 C 2.390625 -9.484375 2.59375 -9.394531 2.75 -9.21875 C 2.914062 -9.050781 3 -8.847656 3 -8.609375 L 3 -7.984375 C 3.3125 -8.460938 3.75 -8.867188 4.3125 -9.203125 C 4.875 -9.535156 5.472656 -9.703125 6.109375 -9.703125 Z M 6.109375 -9.703125 "/></g></g></g><g fill="#231f20" fill-opacity="1"><g transform="translate(455.683315, 350.388286)"><g><path d="M 8.96875 -9.609375 C 9.226562 -9.609375 9.4375 -9.523438 9.59375 -9.359375 C 9.757812 -9.203125 9.84375 -8.988281 9.84375 -8.71875 L 9.84375 -0.875 C 9.84375 -0.625 9.757812 -0.414062 9.59375 -0.25 C 9.4375 -0.0820312 9.226562 0 8.96875 0 C 8.71875 0 8.515625 -0.078125 8.359375 -0.234375 C 8.203125 -0.398438 8.125 -0.613281 8.125 -0.875 L 8.125 -1.34375 C 7.8125 -0.914062 7.382812 -0.550781 6.84375 -0.25 C 6.300781 0.0390625 5.710938 0.1875 5.078125 0.1875 C 4.265625 0.1875 3.519531 -0.0195312 2.84375 -0.4375 C 2.175781 -0.863281 1.648438 -1.453125 1.265625 -2.203125 C 0.890625 -2.960938 0.703125 -3.816406 0.703125 -4.765625 C 0.703125 -5.703125 0.890625 -6.546875 1.265625 -7.296875 C 1.648438 -8.054688 2.171875 -8.644531 2.828125 -9.0625 C 3.492188 -9.488281 4.226562 -9.703125 5.03125 -9.703125 C 5.664062 -9.703125 6.257812 -9.566406 6.8125 -9.296875 C 7.363281 -9.035156 7.800781 -8.695312 8.125 -8.28125 L 8.125 -8.71875 C 8.125 -8.96875 8.203125 -9.175781 8.359375 -9.34375 C 8.515625 -9.519531 8.71875 -9.609375 8.96875 -9.609375 Z M 5.28125 -1.40625 C 5.851562 -1.40625 6.359375 -1.550781 6.796875 -1.84375 C 7.234375 -2.132812 7.578125 -2.53125 7.828125 -3.03125 C 8.078125 -3.539062 8.203125 -4.117188 8.203125 -4.765625 C 8.203125 -5.390625 8.078125 -5.953125 7.828125 -6.453125 C 7.578125 -6.960938 7.234375 -7.363281 6.796875 -7.65625 C 6.359375 -7.957031 5.851562 -8.109375 5.28125 -8.109375 C 4.71875 -8.109375 4.210938 -7.960938 3.765625 -7.671875 C 3.328125 -7.378906 2.984375 -6.976562 2.734375 -6.46875 C 2.492188 -5.96875 2.375 -5.398438 2.375 -4.765625 C 2.375 -4.117188 2.492188 -3.539062 2.734375 -3.03125 C 2.984375 -2.53125 3.328125 -2.132812 3.765625 -1.84375 C 4.210938 -1.550781 4.71875 -1.40625 5.28125 -1.40625 Z M 5.28125 -1.40625 "/></g></g></g><g fill="#231f20" fill-opacity="1"><g transform="translate(478.587105, 350.388286)"><g><path d="M 6 -9.703125 C 6.320312 -9.703125 6.597656 -9.617188 6.828125 -9.453125 C 7.054688 -9.285156 7.171875 -9.082031 7.171875 -8.84375 C 7.171875 -8.550781 7.09375 -8.332031 6.9375 -8.1875 C 6.789062 -8.039062 6.609375 -7.96875 6.390625 -7.96875 C 6.273438 -7.96875 6.113281 -8 5.90625 -8.0625 C 5.644531 -8.15625 5.441406 -8.203125 5.296875 -8.203125 C 4.921875 -8.203125 4.554688 -8.070312 4.203125 -7.8125 C 3.847656 -7.550781 3.554688 -7.191406 3.328125 -6.734375 C 3.109375 -6.285156 3 -5.785156 3 -5.234375 L 3 -0.875 C 3 -0.625 2.914062 -0.414062 2.75 -0.25 C 2.59375 -0.0820312 2.390625 0 2.140625 0 C 1.878906 0 1.671875 -0.078125 1.515625 -0.234375 C 1.359375 -0.398438 1.28125 -0.613281 1.28125 -0.875 L 1.28125 -8.609375 C 1.28125 -8.847656 1.359375 -9.050781 1.515625 -9.21875 C 1.679688 -9.394531 1.890625 -9.484375 2.140625 -9.484375 C 2.390625 -9.484375 2.59375 -9.394531 2.75 -9.21875 C 2.914062 -9.050781 3 -8.847656 3 -8.609375 L 3 -7.6875 C 3.269531 -8.28125 3.671875 -8.757812 4.203125 -9.125 C 4.734375 -9.5 5.332031 -9.691406 6 -9.703125 Z M 6 -9.703125 "/></g></g></g><g fill="#231f20" fill-opacity="1"><g transform="translate(497.855681, 350.388286)"><g><path d="M 8.34375 -9.578125 C 8.59375 -9.578125 8.796875 -9.488281 8.953125 -9.3125 C 9.117188 -9.144531 9.203125 -8.941406 9.203125 -8.703125 L 9.203125 -0.890625 C 9.203125 0.617188 8.785156 1.75 7.953125 2.5 C 7.128906 3.25 6.035156 3.625 4.671875 3.625 C 4.222656 3.625 3.78125 3.578125 3.34375 3.484375 C 2.914062 3.398438 2.5625 3.285156 2.28125 3.140625 C 1.832031 2.941406 1.609375 2.664062 1.609375 2.3125 C 1.609375 2.25 1.617188 2.171875 1.640625 2.078125 C 1.710938 1.867188 1.816406 1.710938 1.953125 1.609375 C 2.085938 1.503906 2.238281 1.453125 2.40625 1.453125 C 2.5 1.453125 2.585938 1.46875 2.671875 1.5 C 3.046875 1.664062 3.378906 1.796875 3.671875 1.890625 C 3.960938 1.992188 4.300781 2.046875 4.6875 2.046875 C 6.550781 2.046875 7.484375 1.085938 7.484375 -0.828125 L 7.484375 -1.1875 C 7.160156 -0.757812 6.742188 -0.421875 6.234375 -0.171875 C 5.722656 0.0664062 5.132812 0.1875 4.46875 0.1875 C 3.46875 0.1875 2.6875 -0.128906 2.125 -0.765625 C 1.5625 -1.410156 1.28125 -2.253906 1.28125 -3.296875 L 1.28125 -8.703125 C 1.28125 -8.953125 1.359375 -9.160156 1.515625 -9.328125 C 1.671875 -9.492188 1.878906 -9.578125 2.140625 -9.578125 C 2.390625 -9.578125 2.59375 -9.488281 2.75 -9.3125 C 2.914062 -9.144531 3 -8.941406 3 -8.703125 L 3 -3.75 C 3 -2.945312 3.171875 -2.351562 3.515625 -1.96875 C 3.867188 -1.59375 4.40625 -1.40625 5.125 -1.40625 C 5.8125 -1.40625 6.375 -1.625 6.8125 -2.0625 C 7.257812 -2.5 7.484375 -3.0625 7.484375 -3.75 L 7.484375 -8.703125 C 7.484375 -8.953125 7.5625 -9.160156 7.71875 -9.328125 C 7.882812 -9.492188 8.09375 -9.578125 8.34375 -9.578125 Z M 8.34375 -9.578125 "/></g></g></g></svg>