<svg xmlns="http://www.w3.org/2000/svg" xmlns:xlink="http://www.w3.org/1999/xlink" width="788" zoomAndPan="magnify" viewBox="0 0 591 173.999997" height="232" preserveAspectRatio="xMidYMid meet" version="1.0">
  <defs>
    <g/>
  </defs>
  <rect x="-59.1" width="709.2" fill="#ffffff" y="-17.4" height="208.799996" fill-opacity="1"/>
  <g fill="#cb3532" fill-opacity="1">
    <g transform="translate(63.401738, 111.286982)">
      <g>
        <path d="M 32.78125 -75.65625 C 36.800781 -75.65625 40.734375 -75.066406 44.578125 -73.890625 C 48.421875 -72.722656 51.273438 -71.566406 53.140625 -70.421875 L 55.84375 -68.625 L 49 -55.125 C 48.457031 -55.476562 47.703125 -55.941406 46.734375 -56.515625 C 45.773438 -57.085938 43.972656 -57.851562 41.328125 -58.8125 C 38.691406 -59.769531 36.234375 -60.25 33.953125 -60.25 C 31.128906 -60.25 28.953125 -59.648438 27.421875 -58.453125 C 25.890625 -57.253906 25.125 -55.632812 25.125 -53.59375 C 25.125 -52.570312 25.484375 -51.625 26.203125 -50.75 C 26.921875 -49.875 28.148438 -48.941406 29.890625 -47.953125 C 31.640625 -46.960938 33.171875 -46.164062 34.484375 -45.5625 C 35.804688 -44.96875 37.851562 -44.070312 40.625 -42.875 C 45.425781 -40.832031 49.519531 -38.050781 52.90625 -34.53125 C 56.300781 -31.019531 58 -27.046875 58 -22.609375 C 58 -18.347656 57.234375 -14.625 55.703125 -11.4375 C 54.171875 -8.257812 52.066406 -5.769531 49.390625 -3.96875 C 46.722656 -2.164062 43.769531 -0.832031 40.53125 0.03125 C 37.289062 0.90625 33.773438 1.34375 29.984375 1.34375 C 26.742188 1.34375 23.5625 1.015625 20.4375 0.359375 C 17.320312 -0.296875 14.710938 -1.117188 12.609375 -2.109375 C 10.503906 -3.109375 8.609375 -4.085938 6.921875 -5.046875 C 5.242188 -6.003906 4.019531 -6.8125 3.25 -7.46875 L 2.078125 -8.46875 L 10.53125 -22.703125 C 11.257812 -22.097656 12.253906 -21.328125 13.515625 -20.390625 C 14.773438 -19.460938 17.007812 -18.21875 20.21875 -16.65625 C 23.425781 -15.09375 26.265625 -14.3125 28.734375 -14.3125 C 35.878906 -14.3125 39.453125 -16.742188 39.453125 -21.609375 C 39.453125 -22.628906 39.195312 -23.578125 38.6875 -24.453125 C 38.175781 -25.328125 37.273438 -26.195312 35.984375 -27.0625 C 34.691406 -27.9375 33.550781 -28.628906 32.5625 -29.140625 C 31.570312 -29.648438 29.945312 -30.425781 27.6875 -31.46875 C 25.4375 -32.519531 23.773438 -33.316406 22.703125 -33.859375 C 18.191406 -36.085938 14.707031 -38.863281 12.25 -42.1875 C 9.789062 -45.519531 8.5625 -49.109375 8.5625 -52.953125 C 8.5625 -59.617188 11.019531 -65.066406 15.9375 -69.296875 C 20.863281 -73.535156 26.476562 -75.65625 32.78125 -75.65625 Z M 32.78125 -75.65625 "/>
      </g>
    </g>
  </g>
  <g fill="#cb3532" fill-opacity="1">
    <g transform="translate(115.445907, 111.286982)">
      <g>
        <path d="M 9.765625 -5.5 C 4.640625 -10.0625 2.078125 -15.914062 2.078125 -23.0625 C 2.078125 -30.207031 4.75 -36.070312 10.09375 -40.65625 C 15.4375 -45.25 22.039062 -47.546875 29.90625 -47.546875 C 37.644531 -47.546875 44.171875 -45.234375 49.484375 -40.609375 C 54.796875 -35.992188 57.453125 -30.140625 57.453125 -23.046875 C 57.453125 -15.960938 54.851562 -10.125 49.65625 -5.53125 C 44.46875 -0.945312 37.882812 1.34375 29.90625 1.34375 C 21.613281 1.34375 14.898438 -0.9375 9.765625 -5.5 Z M 22.109375 -30.890625 C 20.035156 -28.847656 19 -26.234375 19 -23.046875 C 19 -19.867188 19.988281 -17.273438 21.96875 -15.265625 C 23.957031 -13.253906 26.570312 -12.25 29.8125 -12.25 C 32.9375 -12.25 35.503906 -13.269531 37.515625 -15.3125 C 39.523438 -17.351562 40.53125 -19.9375 40.53125 -23.0625 C 40.53125 -26.238281 39.492188 -28.847656 37.421875 -30.890625 C 35.347656 -32.929688 32.8125 -33.953125 29.8125 -33.953125 C 26.75 -33.953125 24.179688 -32.929688 22.109375 -30.890625 Z M 22.109375 -30.890625 "/>
      </g>
    </g>
  </g>
  <g fill="#cb3532" fill-opacity="1">
    <g transform="translate(166.499558, 111.286982)">
      <g>
        <path d="M 5.40625 0 L 5.40625 -77.453125 L 21.34375 -77.453125 L 21.34375 0 Z M 5.40625 0 "/>
      </g>
    </g>
  </g>
  <g fill="#cb3532" fill-opacity="1">
    <g transform="translate(184.776436, 111.286982)">
      <g>
        <path d="M 52.140625 -20.890625 L 18.640625 -20.890625 C 18.640625 -17.648438 19.691406 -15.25 21.796875 -13.6875 C 23.898438 -12.125 26.179688 -11.34375 28.640625 -11.34375 C 31.222656 -11.34375 33.265625 -11.6875 34.765625 -12.375 C 36.265625 -13.070312 37.972656 -14.441406 39.890625 -16.484375 L 51.421875 -10.71875 C 46.617188 -2.675781 38.632812 1.34375 27.46875 1.34375 C 20.5 1.34375 14.523438 -1.039062 9.546875 -5.8125 C 4.566406 -10.582031 2.078125 -16.328125 2.078125 -23.046875 C 2.078125 -29.773438 4.566406 -35.539062 9.546875 -40.34375 C 14.523438 -45.144531 20.5 -47.546875 27.46875 -47.546875 C 34.789062 -47.546875 40.75 -45.429688 45.34375 -41.203125 C 49.9375 -36.972656 52.234375 -30.925781 52.234375 -23.0625 C 52.234375 -21.976562 52.203125 -21.253906 52.140625 -20.890625 Z M 19.09375 -29.71875 L 36.65625 -29.71875 C 36.289062 -32.125 35.34375 -33.972656 33.8125 -35.265625 C 32.28125 -36.554688 30.316406 -37.203125 27.921875 -37.203125 C 25.273438 -37.203125 23.171875 -36.507812 21.609375 -35.125 C 20.046875 -33.738281 19.207031 -31.9375 19.09375 -29.71875 Z M 19.09375 -29.71875 "/>
      </g>
    </g>
  </g>
  <g fill="#cb3532" fill-opacity="1">
    <g transform="translate(230.607413, 111.286982)">
      <g/>
    </g>
  </g>
  <g fill="#cb3532" fill-opacity="1">
    <g transform="translate(246.723187, 111.286982)">
      <g>
        <path d="M 32.78125 -75.65625 C 36.800781 -75.65625 40.734375 -75.066406 44.578125 -73.890625 C 48.421875 -72.722656 51.273438 -71.566406 53.140625 -70.421875 L 55.84375 -68.625 L 49 -55.125 C 48.457031 -55.476562 47.703125 -55.941406 46.734375 -56.515625 C 45.773438 -57.085938 43.972656 -57.851562 41.328125 -58.8125 C 38.691406 -59.769531 36.234375 -60.25 33.953125 -60.25 C 31.128906 -60.25 28.953125 -59.648438 27.421875 -58.453125 C 25.890625 -57.253906 25.125 -55.632812 25.125 -53.59375 C 25.125 -52.570312 25.484375 -51.625 26.203125 -50.75 C 26.921875 -49.875 28.148438 -48.941406 29.890625 -47.953125 C 31.640625 -46.960938 33.171875 -46.164062 34.484375 -45.5625 C 35.804688 -44.96875 37.851562 -44.070312 40.625 -42.875 C 45.425781 -40.832031 49.519531 -38.050781 52.90625 -34.53125 C 56.300781 -31.019531 58 -27.046875 58 -22.609375 C 58 -18.347656 57.234375 -14.625 55.703125 -11.4375 C 54.171875 -8.257812 52.066406 -5.769531 49.390625 -3.96875 C 46.722656 -2.164062 43.769531 -0.832031 40.53125 0.03125 C 37.289062 0.90625 33.773438 1.34375 29.984375 1.34375 C 26.742188 1.34375 23.5625 1.015625 20.4375 0.359375 C 17.320312 -0.296875 14.710938 -1.117188 12.609375 -2.109375 C 10.503906 -3.109375 8.609375 -4.085938 6.921875 -5.046875 C 5.242188 -6.003906 4.019531 -6.8125 3.25 -7.46875 L 2.078125 -8.46875 L 10.53125 -22.703125 C 11.257812 -22.097656 12.253906 -21.328125 13.515625 -20.390625 C 14.773438 -19.460938 17.007812 -18.21875 20.21875 -16.65625 C 23.425781 -15.09375 26.265625 -14.3125 28.734375 -14.3125 C 35.878906 -14.3125 39.453125 -16.742188 39.453125 -21.609375 C 39.453125 -22.628906 39.195312 -23.578125 38.6875 -24.453125 C 38.175781 -25.328125 37.273438 -26.195312 35.984375 -27.0625 C 34.691406 -27.9375 33.550781 -28.628906 32.5625 -29.140625 C 31.570312 -29.648438 29.945312 -30.425781 27.6875 -31.46875 C 25.4375 -32.519531 23.773438 -33.316406 22.703125 -33.859375 C 18.191406 -36.085938 14.707031 -38.863281 12.25 -42.1875 C 9.789062 -45.519531 8.5625 -49.109375 8.5625 -52.953125 C 8.5625 -59.617188 11.019531 -65.066406 15.9375 -69.296875 C 20.863281 -73.535156 26.476562 -75.65625 32.78125 -75.65625 Z M 32.78125 -75.65625 "/>
      </g>
    </g>
  </g>
  <g fill="#cb3532" fill-opacity="1">
    <g transform="translate(298.767346, 111.286982)">
      <g>
        <path d="M 9.765625 -5.5 C 4.640625 -10.0625 2.078125 -15.914062 2.078125 -23.0625 C 2.078125 -30.207031 4.75 -36.070312 10.09375 -40.65625 C 15.4375 -45.25 22.039062 -47.546875 29.90625 -47.546875 C 37.644531 -47.546875 44.171875 -45.234375 49.484375 -40.609375 C 54.796875 -35.992188 57.453125 -30.140625 57.453125 -23.046875 C 57.453125 -15.960938 54.851562 -10.125 49.65625 -5.53125 C 44.46875 -0.945312 37.882812 1.34375 29.90625 1.34375 C 21.613281 1.34375 14.898438 -0.9375 9.765625 -5.5 Z M 22.109375 -30.890625 C 20.035156 -28.847656 19 -26.234375 19 -23.046875 C 19 -19.867188 19.988281 -17.273438 21.96875 -15.265625 C 23.957031 -13.253906 26.570312 -12.25 29.8125 -12.25 C 32.9375 -12.25 35.503906 -13.269531 37.515625 -15.3125 C 39.523438 -17.351562 40.53125 -19.9375 40.53125 -23.0625 C 40.53125 -26.238281 39.492188 -28.847656 37.421875 -30.890625 C 35.347656 -32.929688 32.8125 -33.953125 29.8125 -33.953125 C 26.75 -33.953125 24.179688 -32.929688 22.109375 -30.890625 Z M 22.109375 -30.890625 "/>
      </g>
    </g>
  </g>
  <g fill="#cb3532" fill-opacity="1">
    <g transform="translate(349.821008, 111.286982)">
      <g>
        <path d="M 20.4375 -46.203125 L 20.4375 -24.234375 C 20.4375 -19.660156 21.128906 -16.414062 22.515625 -14.5 C 23.898438 -12.582031 26.242188 -11.625 29.546875 -11.625 C 32.847656 -11.625 35.1875 -12.582031 36.5625 -14.5 C 37.945312 -16.414062 38.640625 -19.660156 38.640625 -24.234375 L 38.640625 -46.203125 L 54.578125 -46.203125 L 54.578125 -20.359375 C 54.578125 -12.671875 52.578125 -7.128906 48.578125 -3.734375 C 44.585938 -0.347656 38.238281 1.34375 29.53125 1.34375 C 20.832031 1.34375 14.484375 -0.347656 10.484375 -3.734375 C 6.492188 -7.128906 4.5 -12.671875 4.5 -20.359375 L 4.5 -46.203125 Z M 20.4375 -46.203125 "/>
      </g>
    </g>
  </g>
  <g fill="#cb3532" fill-opacity="1">
    <g transform="translate(400.424425, 111.286982)">
      <g>
        <path d="M 5.40625 0 L 5.40625 -46.203125 L 21.34375 -46.203125 L 21.34375 -39.53125 L 21.53125 -39.53125 C 21.644531 -39.769531 21.835938 -40.070312 22.109375 -40.4375 C 22.378906 -40.800781 22.960938 -41.429688 23.859375 -42.328125 C 24.765625 -43.234375 25.726562 -44.046875 26.75 -44.765625 C 27.769531 -45.484375 29.085938 -46.125 30.703125 -46.6875 C 32.328125 -47.257812 33.984375 -47.546875 35.671875 -47.546875 C 37.410156 -47.546875 39.117188 -47.304688 40.796875 -46.828125 C 42.472656 -46.347656 43.703125 -45.867188 44.484375 -45.390625 L 45.75 -44.671875 L 39.09375 -31.15625 C 37.101562 -32.84375 34.335938 -33.6875 30.796875 -33.6875 C 28.878906 -33.6875 27.226562 -33.265625 25.84375 -32.421875 C 24.46875 -31.578125 23.492188 -30.554688 22.921875 -29.359375 C 22.347656 -28.160156 21.941406 -27.140625 21.703125 -26.296875 C 21.460938 -25.453125 21.34375 -24.789062 21.34375 -24.3125 L 21.34375 0 Z M 5.40625 0 "/>
      </g>
    </g>
  </g>
  <g fill="#cb3532" fill-opacity="1">
    <g transform="translate(436.800559, 111.286982)">
      <g>
        <path d="M 29.984375 -34.5 C 26.984375 -34.5 24.398438 -33.382812 22.234375 -31.15625 C 20.078125 -28.9375 19 -26.265625 19 -23.140625 C 19 -19.960938 20.078125 -17.257812 22.234375 -15.03125 C 24.398438 -12.8125 26.984375 -11.703125 29.984375 -11.703125 C 31.429688 -11.703125 32.800781 -11.878906 34.09375 -12.234375 C 35.382812 -12.597656 36.328125 -12.960938 36.921875 -13.328125 L 37.734375 -13.875 L 43.140625 -2.796875 C 42.722656 -2.492188 42.140625 -2.113281 41.390625 -1.65625 C 40.640625 -1.207031 38.925781 -0.597656 36.25 0.171875 C 33.582031 0.953125 30.71875 1.34375 27.65625 1.34375 C 20.863281 1.34375 14.898438 -1.039062 9.765625 -5.8125 C 4.640625 -10.582031 2.078125 -16.300781 2.078125 -22.96875 C 2.078125 -29.6875 4.640625 -35.460938 9.765625 -40.296875 C 14.898438 -45.128906 20.863281 -47.546875 27.65625 -47.546875 C 30.71875 -47.546875 33.535156 -47.1875 36.109375 -46.46875 C 38.691406 -45.75 40.523438 -45.03125 41.609375 -44.3125 L 43.140625 -43.234375 L 37.734375 -32.328125 C 35.753906 -33.773438 33.171875 -34.5 29.984375 -34.5 Z M 29.984375 -34.5 "/>
      </g>
    </g>
  </g>
  <g fill="#cb3532" fill-opacity="1">
    <g transform="translate(472.54639, 111.286982)">
      <g>
        <path d="M 52.140625 -20.890625 L 18.640625 -20.890625 C 18.640625 -17.648438 19.691406 -15.25 21.796875 -13.6875 C 23.898438 -12.125 26.179688 -11.34375 28.640625 -11.34375 C 31.222656 -11.34375 33.265625 -11.6875 34.765625 -12.375 C 36.265625 -13.070312 37.972656 -14.441406 39.890625 -16.484375 L 51.421875 -10.71875 C 46.617188 -2.675781 38.632812 1.34375 27.46875 1.34375 C 20.5 1.34375 14.523438 -1.039062 9.546875 -5.8125 C 4.566406 -10.582031 2.078125 -16.328125 2.078125 -23.046875 C 2.078125 -29.773438 4.566406 -35.539062 9.546875 -40.34375 C 14.523438 -45.144531 20.5 -47.546875 27.46875 -47.546875 C 34.789062 -47.546875 40.75 -45.429688 45.34375 -41.203125 C 49.9375 -36.972656 52.234375 -30.925781 52.234375 -23.0625 C 52.234375 -21.976562 52.203125 -21.253906 52.140625 -20.890625 Z M 19.09375 -29.71875 L 36.65625 -29.71875 C 36.289062 -32.125 35.34375 -33.972656 33.8125 -35.265625 C 32.28125 -36.554688 30.316406 -37.203125 27.921875 -37.203125 C 25.273438 -37.203125 23.171875 -36.507812 21.609375 -35.125 C 20.046875 -33.738281 19.207031 -31.9375 19.09375 -29.71875 Z M 19.09375 -29.71875 "/>
      </g>
    </g>
  </g>
  <g fill="#231f20" fill-opacity="1">
    <g transform="translate(139.040344, 148.960924)">
      <g>
        <path d="M 8.765625 -6.921875 C 9.429688 -6.691406 9.976562 -6.3125 10.40625 -5.78125 C 10.84375 -5.257812 11.0625 -4.578125 11.0625 -3.734375 C 11.0625 -2.390625 10.671875 -1.429688 9.890625 -0.859375 C 9.109375 -0.285156 8.15625 0 7.03125 0 L 2.375 0 C 2.132812 0 1.925781 -0.0820312 1.75 -0.25 C 1.582031 -0.414062 1.5 -0.625 1.5 -0.875 L 1.5 -11.8125 C 1.5 -12.0625 1.582031 -12.269531 1.75 -12.4375 C 1.925781 -12.601562 2.132812 -12.6875 2.375 -12.6875 L 7.03125 -12.6875 C 8.132812 -12.6875 8.972656 -12.414062 9.546875 -11.875 C 10.117188 -11.332031 10.40625 -10.546875 10.40625 -9.515625 C 10.40625 -8.929688 10.265625 -8.410156 9.984375 -7.953125 C 9.703125 -7.503906 9.296875 -7.160156 8.765625 -6.921875 Z M 8.53125 -9.25 C 8.53125 -9.8125 8.375 -10.238281 8.0625 -10.53125 C 7.757812 -10.832031 7.332031 -10.984375 6.78125 -10.984375 L 3.359375 -10.984375 L 3.359375 -7.453125 L 6.8125 -7.453125 C 7.3125 -7.460938 7.722656 -7.617188 8.046875 -7.921875 C 8.367188 -8.234375 8.53125 -8.675781 8.53125 -9.25 Z M 7.015625 -1.671875 C 7.679688 -1.671875 8.210938 -1.84375 8.609375 -2.1875 C 9.003906 -2.53125 9.203125 -3.046875 9.203125 -3.734375 C 9.203125 -5.078125 8.441406 -5.75 6.921875 -5.75 L 3.359375 -5.75 L 3.359375 -1.671875 Z M 7.015625 -1.671875 "/>
      </g>
    </g>
  </g>
  <g fill="#231f20" fill-opacity="1">
    <g transform="translate(162.689422, 148.960924)">
      <g>
        <path d="M 9.625 -5.109375 C 9.613281 -4.890625 9.519531 -4.703125 9.34375 -4.546875 C 9.175781 -4.398438 8.976562 -4.328125 8.75 -4.328125 L 2.375 -4.328125 C 2.457031 -3.453125 2.789062 -2.742188 3.375 -2.203125 C 3.96875 -1.671875 4.6875 -1.40625 5.53125 -1.40625 C 6.101562 -1.40625 6.570312 -1.488281 6.9375 -1.65625 C 7.300781 -1.832031 7.625 -2.050781 7.90625 -2.3125 C 8.082031 -2.425781 8.253906 -2.484375 8.421875 -2.484375 C 8.628906 -2.484375 8.800781 -2.410156 8.9375 -2.265625 C 9.082031 -2.117188 9.15625 -1.953125 9.15625 -1.765625 C 9.15625 -1.503906 9.035156 -1.269531 8.796875 -1.0625 C 8.441406 -0.71875 7.972656 -0.421875 7.390625 -0.171875 C 6.816406 0.0664062 6.226562 0.1875 5.625 0.1875 C 4.644531 0.1875 3.78125 -0.015625 3.03125 -0.421875 C 2.289062 -0.835938 1.71875 -1.414062 1.3125 -2.15625 C 0.90625 -2.894531 0.703125 -3.726562 0.703125 -4.65625 C 0.703125 -5.675781 0.910156 -6.566406 1.328125 -7.328125 C 1.742188 -8.097656 2.289062 -8.6875 2.96875 -9.09375 C 3.65625 -9.507812 4.394531 -9.71875 5.1875 -9.71875 C 5.957031 -9.71875 6.679688 -9.515625 7.359375 -9.109375 C 8.035156 -8.710938 8.578125 -8.164062 8.984375 -7.46875 C 9.398438 -6.769531 9.613281 -5.984375 9.625 -5.109375 Z M 5.1875 -8.125 C 4.507812 -8.125 3.921875 -7.929688 3.421875 -7.546875 C 2.929688 -7.171875 2.609375 -6.582031 2.453125 -5.78125 L 7.796875 -5.78125 L 7.796875 -5.921875 C 7.734375 -6.566406 7.441406 -7.09375 6.921875 -7.5 C 6.410156 -7.914062 5.832031 -8.125 5.1875 -8.125 Z M 5.1875 -8.125 "/>
      </g>
    </g>
  </g>
  <g fill="#231f20" fill-opacity="1">
    <g transform="translate(184.83484, 148.960924)">
      <g>
        <path d="M 8.359375 -9.59375 C 8.609375 -9.59375 8.8125 -9.503906 8.96875 -9.328125 C 9.132812 -9.160156 9.21875 -8.957031 9.21875 -8.71875 L 9.21875 -0.890625 C 9.21875 0.617188 8.800781 1.75 7.96875 2.5 C 7.132812 3.25 6.035156 3.625 4.671875 3.625 C 4.222656 3.625 3.78125 3.582031 3.34375 3.5 C 2.914062 3.414062 2.5625 3.300781 2.28125 3.15625 C 1.832031 2.945312 1.609375 2.664062 1.609375 2.3125 C 1.609375 2.257812 1.625 2.179688 1.65625 2.078125 C 1.726562 1.878906 1.828125 1.722656 1.953125 1.609375 C 2.085938 1.503906 2.238281 1.453125 2.40625 1.453125 C 2.507812 1.453125 2.601562 1.46875 2.6875 1.5 C 3.0625 1.675781 3.390625 1.8125 3.671875 1.90625 C 3.960938 2 4.300781 2.046875 4.6875 2.046875 C 6.5625 2.046875 7.5 1.085938 7.5 -0.828125 L 7.5 -1.203125 C 7.175781 -0.765625 6.753906 -0.421875 6.234375 -0.171875 C 5.722656 0.0664062 5.140625 0.1875 4.484375 0.1875 C 3.472656 0.1875 2.6875 -0.128906 2.125 -0.765625 C 1.5625 -1.410156 1.28125 -2.253906 1.28125 -3.296875 L 1.28125 -8.71875 C 1.28125 -8.96875 1.359375 -9.175781 1.515625 -9.34375 C 1.679688 -9.507812 1.890625 -9.59375 2.140625 -9.59375 C 2.390625 -9.59375 2.597656 -9.503906 2.765625 -9.328125 C 2.929688 -9.160156 3.015625 -8.957031 3.015625 -8.71875 L 3.015625 -3.75 C 3.015625 -2.957031 3.1875 -2.367188 3.53125 -1.984375 C 3.882812 -1.597656 4.414062 -1.40625 5.125 -1.40625 C 5.8125 -1.40625 6.378906 -1.625 6.828125 -2.0625 C 7.273438 -2.5 7.5 -3.0625 7.5 -3.75 L 7.5 -8.71875 C 7.5 -8.96875 7.578125 -9.175781 7.734375 -9.34375 C 7.890625 -9.507812 8.097656 -9.59375 8.359375 -9.59375 Z M 8.359375 -9.59375 "/>
      </g>
    </g>
  </g>
  <g fill="#231f20" fill-opacity="1">
    <g transform="translate(207.143308, 148.960924)">
      <g>
        <path d="M 10.28125 -4.75 C 10.28125 -3.800781 10.066406 -2.953125 9.640625 -2.203125 C 9.222656 -1.460938 8.644531 -0.878906 7.90625 -0.453125 C 7.175781 -0.0234375 6.367188 0.1875 5.484375 0.1875 C 4.609375 0.1875 3.800781 -0.0234375 3.0625 -0.453125 C 2.332031 -0.878906 1.753906 -1.460938 1.328125 -2.203125 C 0.910156 -2.953125 0.703125 -3.800781 0.703125 -4.75 C 0.703125 -5.6875 0.910156 -6.535156 1.328125 -7.296875 C 1.753906 -8.066406 2.332031 -8.660156 3.0625 -9.078125 C 3.800781 -9.503906 4.609375 -9.71875 5.484375 -9.71875 C 6.367188 -9.71875 7.175781 -9.503906 7.90625 -9.078125 C 8.644531 -8.660156 9.222656 -8.066406 9.640625 -7.296875 C 10.066406 -6.535156 10.28125 -5.6875 10.28125 -4.75 Z M 8.5625 -4.75 C 8.5625 -5.40625 8.421875 -5.988281 8.140625 -6.5 C 7.867188 -7.007812 7.5 -7.40625 7.03125 -7.6875 C 6.570312 -7.976562 6.054688 -8.125 5.484375 -8.125 C 4.921875 -8.125 4.40625 -7.976562 3.9375 -7.6875 C 3.476562 -7.40625 3.109375 -7.007812 2.828125 -6.5 C 2.554688 -5.988281 2.421875 -5.40625 2.421875 -4.75 C 2.421875 -4.101562 2.554688 -3.523438 2.828125 -3.015625 C 3.109375 -2.515625 3.476562 -2.117188 3.9375 -1.828125 C 4.40625 -1.546875 4.921875 -1.40625 5.484375 -1.40625 C 6.054688 -1.40625 6.570312 -1.546875 7.03125 -1.828125 C 7.5 -2.117188 7.867188 -2.515625 8.140625 -3.015625 C 8.421875 -3.523438 8.5625 -4.101562 8.5625 -4.75 Z M 8.5625 -4.75 "/>
      </g>
    </g>
  </g>
  <g fill="#231f20" fill-opacity="1">
    <g transform="translate(229.940927, 148.960924)">
      <g>
        <path d="M 6.125 -9.71875 C 8.300781 -9.71875 9.390625 -8.410156 9.390625 -5.796875 L 9.390625 -0.875 C 9.390625 -0.625 9.304688 -0.414062 9.140625 -0.25 C 8.984375 -0.0820312 8.773438 0 8.515625 0 C 8.273438 0 8.070312 -0.0820312 7.90625 -0.25 C 7.75 -0.414062 7.671875 -0.625 7.671875 -0.875 L 7.671875 -5.78125 C 7.671875 -6.488281 7.503906 -7.054688 7.171875 -7.484375 C 6.847656 -7.910156 6.316406 -8.125 5.578125 -8.125 C 5.097656 -8.125 4.660156 -8.015625 4.265625 -7.796875 C 3.867188 -7.585938 3.5625 -7.304688 3.34375 -6.953125 C 3.125 -6.597656 3.015625 -6.207031 3.015625 -5.78125 L 3.015625 -0.875 C 3.015625 -0.625 2.929688 -0.414062 2.765625 -0.25 C 2.597656 -0.0820312 2.390625 0 2.140625 0 C 1.890625 0 1.679688 -0.078125 1.515625 -0.234375 C 1.359375 -0.398438 1.28125 -0.613281 1.28125 -0.875 L 1.28125 -8.625 C 1.28125 -8.863281 1.363281 -9.066406 1.53125 -9.234375 C 1.695312 -9.410156 1.898438 -9.5 2.140625 -9.5 C 2.390625 -9.5 2.597656 -9.410156 2.765625 -9.234375 C 2.929688 -9.066406 3.015625 -8.863281 3.015625 -8.625 L 3.015625 -8 C 3.328125 -8.476562 3.765625 -8.882812 4.328125 -9.21875 C 4.890625 -9.550781 5.488281 -9.71875 6.125 -9.71875 Z M 6.125 -9.71875 "/>
      </g>
    </g>
  </g>
  <g fill="#231f20" fill-opacity="1">
    <g transform="translate(252.43056, 148.960924)">
      <g>
        <path d="M 8.984375 -13.40625 C 9.242188 -13.40625 9.453125 -13.320312 9.609375 -13.15625 C 9.773438 -13 9.859375 -12.796875 9.859375 -12.546875 L 9.859375 -0.875 C 9.859375 -0.625 9.773438 -0.414062 9.609375 -0.25 C 9.453125 -0.0820312 9.242188 0 8.984375 0 C 8.734375 0 8.53125 -0.078125 8.375 -0.234375 C 8.21875 -0.398438 8.140625 -0.613281 8.140625 -0.875 L 8.140625 -1.375 C 7.835938 -0.9375 7.410156 -0.566406 6.859375 -0.265625 C 6.304688 0.0351562 5.71875 0.1875 5.09375 0.1875 C 4.269531 0.1875 3.523438 -0.0234375 2.859375 -0.453125 C 2.191406 -0.878906 1.664062 -1.46875 1.28125 -2.21875 C 0.894531 -2.976562 0.703125 -3.828125 0.703125 -4.765625 C 0.703125 -5.710938 0.890625 -6.5625 1.265625 -7.3125 C 1.648438 -8.070312 2.175781 -8.660156 2.84375 -9.078125 C 3.507812 -9.503906 4.238281 -9.71875 5.03125 -9.71875 C 5.675781 -9.71875 6.269531 -9.582031 6.8125 -9.3125 C 7.351562 -9.050781 7.796875 -8.707031 8.140625 -8.28125 L 8.140625 -12.546875 C 8.140625 -12.796875 8.21875 -13 8.375 -13.15625 C 8.53125 -13.320312 8.734375 -13.40625 8.984375 -13.40625 Z M 5.296875 -1.40625 C 5.859375 -1.40625 6.359375 -1.550781 6.796875 -1.84375 C 7.242188 -2.132812 7.585938 -2.535156 7.828125 -3.046875 C 8.078125 -3.554688 8.203125 -4.128906 8.203125 -4.765625 C 8.203125 -5.390625 8.078125 -5.957031 7.828125 -6.46875 C 7.585938 -6.988281 7.242188 -7.394531 6.796875 -7.6875 C 6.359375 -7.976562 5.859375 -8.125 5.296875 -8.125 C 4.722656 -8.125 4.21875 -7.976562 3.78125 -7.6875 C 3.34375 -7.394531 3 -6.988281 2.75 -6.46875 C 2.5 -5.957031 2.375 -5.390625 2.375 -4.765625 C 2.375 -4.128906 2.5 -3.554688 2.75 -3.046875 C 3 -2.535156 3.34375 -2.132812 3.78125 -1.84375 C 4.21875 -1.550781 4.722656 -1.40625 5.296875 -1.40625 Z M 5.296875 -1.40625 "/>
      </g>
    </g>
  </g>
  <g fill="#231f20" fill-opacity="1">
    <g transform="translate(275.373114, 148.960924)">
      <g/>
    </g>
  </g>
  <g fill="#231f20" fill-opacity="1">
    <g transform="translate(292.210458, 148.960924)">
      <g>
        <path d="M 13.03125 -6.34375 C 13.03125 -5.125 12.765625 -4.019531 12.234375 -3.03125 C 11.710938 -2.039062 10.984375 -1.253906 10.046875 -0.671875 C 9.117188 -0.0976562 8.070312 0.1875 6.90625 0.1875 C 5.726562 0.1875 4.675781 -0.0976562 3.75 -0.671875 C 2.820312 -1.253906 2.09375 -2.039062 1.5625 -3.03125 C 1.039062 -4.019531 0.78125 -5.125 0.78125 -6.34375 C 0.78125 -7.5625 1.039062 -8.664062 1.5625 -9.65625 C 2.09375 -10.644531 2.820312 -11.425781 3.75 -12 C 4.675781 -12.582031 5.726562 -12.875 6.90625 -12.875 C 8.070312 -12.875 9.117188 -12.582031 10.046875 -12 C 10.984375 -11.425781 11.710938 -10.644531 12.234375 -9.65625 C 12.765625 -8.664062 13.03125 -7.5625 13.03125 -6.34375 Z M 11.171875 -6.34375 C 11.171875 -7.25 10.988281 -8.066406 10.625 -8.796875 C 10.257812 -9.523438 9.753906 -10.097656 9.109375 -10.515625 C 8.460938 -10.929688 7.726562 -11.140625 6.90625 -11.140625 C 6.082031 -11.140625 5.347656 -10.9375 4.703125 -10.53125 C 4.054688 -10.125 3.550781 -9.550781 3.1875 -8.8125 C 2.820312 -8.082031 2.640625 -7.257812 2.640625 -6.34375 C 2.640625 -5.4375 2.820312 -4.617188 3.1875 -3.890625 C 3.550781 -3.160156 4.054688 -2.585938 4.703125 -2.171875 C 5.347656 -1.753906 6.082031 -1.546875 6.90625 -1.546875 C 7.726562 -1.546875 8.460938 -1.753906 9.109375 -2.171875 C 9.753906 -2.585938 10.257812 -3.160156 10.625 -3.890625 C 10.988281 -4.617188 11.171875 -5.4375 11.171875 -6.34375 Z M 11.171875 -6.34375 "/>
      </g>
    </g>
  </g>
  <g fill="#231f20" fill-opacity="1">
    <g transform="translate(317.834211, 148.960924)">
      <g>
        <path d="M 6.015625 -9.71875 C 6.328125 -9.71875 6.597656 -9.632812 6.828125 -9.46875 C 7.054688 -9.300781 7.171875 -9.097656 7.171875 -8.859375 C 7.171875 -8.566406 7.09375 -8.34375 6.9375 -8.1875 C 6.789062 -8.039062 6.609375 -7.96875 6.390625 -7.96875 C 6.285156 -7.96875 6.125 -8.003906 5.90625 -8.078125 C 5.65625 -8.160156 5.457031 -8.203125 5.3125 -8.203125 C 4.9375 -8.203125 4.566406 -8.070312 4.203125 -7.8125 C 3.847656 -7.5625 3.5625 -7.207031 3.34375 -6.75 C 3.125 -6.300781 3.015625 -5.796875 3.015625 -5.234375 L 3.015625 -0.875 C 3.015625 -0.625 2.929688 -0.414062 2.765625 -0.25 C 2.597656 -0.0820312 2.390625 0 2.140625 0 C 1.890625 0 1.679688 -0.078125 1.515625 -0.234375 C 1.359375 -0.398438 1.28125 -0.613281 1.28125 -0.875 L 1.28125 -8.625 C 1.28125 -8.863281 1.363281 -9.066406 1.53125 -9.234375 C 1.695312 -9.410156 1.898438 -9.5 2.140625 -9.5 C 2.390625 -9.5 2.597656 -9.410156 2.765625 -9.234375 C 2.929688 -9.066406 3.015625 -8.863281 3.015625 -8.625 L 3.015625 -7.703125 C 3.273438 -8.296875 3.671875 -8.773438 4.203125 -9.140625 C 4.734375 -9.515625 5.335938 -9.707031 6.015625 -9.71875 Z M 6.015625 -9.71875 "/>
      </g>
    </g>
  </g>
  <g fill="#231f20" fill-opacity="1">
    <g transform="translate(337.13539, 148.960924)">
      <g>
        <path d="M 8.984375 -13.40625 C 9.242188 -13.40625 9.453125 -13.320312 9.609375 -13.15625 C 9.773438 -13 9.859375 -12.796875 9.859375 -12.546875 L 9.859375 -0.875 C 9.859375 -0.625 9.773438 -0.414062 9.609375 -0.25 C 9.453125 -0.0820312 9.242188 0 8.984375 0 C 8.734375 0 8.53125 -0.078125 8.375 -0.234375 C 8.21875 -0.398438 8.140625 -0.613281 8.140625 -0.875 L 8.140625 -1.375 C 7.835938 -0.9375 7.410156 -0.566406 6.859375 -0.265625 C 6.304688 0.0351562 5.71875 0.1875 5.09375 0.1875 C 4.269531 0.1875 3.523438 -0.0234375 2.859375 -0.453125 C 2.191406 -0.878906 1.664062 -1.46875 1.28125 -2.21875 C 0.894531 -2.976562 0.703125 -3.828125 0.703125 -4.765625 C 0.703125 -5.710938 0.890625 -6.5625 1.265625 -7.3125 C 1.648438 -8.070312 2.175781 -8.660156 2.84375 -9.078125 C 3.507812 -9.503906 4.238281 -9.71875 5.03125 -9.71875 C 5.675781 -9.71875 6.269531 -9.582031 6.8125 -9.3125 C 7.351562 -9.050781 7.796875 -8.707031 8.140625 -8.28125 L 8.140625 -12.546875 C 8.140625 -12.796875 8.21875 -13 8.375 -13.15625 C 8.53125 -13.320312 8.734375 -13.40625 8.984375 -13.40625 Z M 5.296875 -1.40625 C 5.859375 -1.40625 6.359375 -1.550781 6.796875 -1.84375 C 7.242188 -2.132812 7.585938 -2.535156 7.828125 -3.046875 C 8.078125 -3.554688 8.203125 -4.128906 8.203125 -4.765625 C 8.203125 -5.390625 8.078125 -5.957031 7.828125 -6.46875 C 7.585938 -6.988281 7.242188 -7.394531 6.796875 -7.6875 C 6.359375 -7.976562 5.859375 -8.125 5.296875 -8.125 C 4.722656 -8.125 4.21875 -7.976562 3.78125 -7.6875 C 3.34375 -7.394531 3 -6.988281 2.75 -6.46875 C 2.5 -5.957031 2.375 -5.390625 2.375 -4.765625 C 2.375 -4.128906 2.5 -3.554688 2.75 -3.046875 C 3 -2.535156 3.34375 -2.132812 3.78125 -1.84375 C 4.21875 -1.550781 4.722656 -1.40625 5.296875 -1.40625 Z M 5.296875 -1.40625 "/>
      </g>
    </g>
  </g>
  <g fill="#231f20" fill-opacity="1">
    <g transform="translate(360.077954, 148.960924)">
      <g>
        <path d="M 2.921875 -0.875 C 2.921875 -0.625 2.835938 -0.414062 2.671875 -0.25 C 2.503906 -0.0820312 2.296875 0 2.046875 0 C 1.804688 0 1.601562 -0.0820312 1.4375 -0.25 C 1.28125 -0.414062 1.203125 -0.625 1.203125 -0.875 L 1.203125 -8.71875 C 1.203125 -8.957031 1.28125 -9.160156 1.4375 -9.328125 C 1.601562 -9.503906 1.804688 -9.59375 2.046875 -9.59375 C 2.296875 -9.59375 2.503906 -9.503906 2.671875 -9.328125 C 2.835938 -9.160156 2.921875 -8.957031 2.921875 -8.71875 Z M 2.046875 -10.78125 C 1.703125 -10.78125 1.453125 -10.84375 1.296875 -10.96875 C 1.148438 -11.101562 1.078125 -11.304688 1.078125 -11.578125 L 1.078125 -11.875 C 1.078125 -12.164062 1.15625 -12.367188 1.3125 -12.484375 C 1.476562 -12.609375 1.734375 -12.671875 2.078125 -12.671875 C 2.410156 -12.671875 2.648438 -12.601562 2.796875 -12.46875 C 2.953125 -12.34375 3.03125 -12.144531 3.03125 -11.875 L 3.03125 -11.578125 C 3.03125 -11.285156 2.953125 -11.078125 2.796875 -10.953125 C 2.640625 -10.835938 2.390625 -10.78125 2.046875 -10.78125 Z M 2.046875 -10.78125 "/>
      </g>
    </g>
  </g>
  <g fill="#231f20" fill-opacity="1">
    <g transform="translate(376.009485, 148.960924)">
      <g>
        <path d="M 6.125 -9.71875 C 8.300781 -9.71875 9.390625 -8.410156 9.390625 -5.796875 L 9.390625 -0.875 C 9.390625 -0.625 9.304688 -0.414062 9.140625 -0.25 C 8.984375 -0.0820312 8.773438 0 8.515625 0 C 8.273438 0 8.070312 -0.0820312 7.90625 -0.25 C 7.75 -0.414062 7.671875 -0.625 7.671875 -0.875 L 7.671875 -5.78125 C 7.671875 -6.488281 7.503906 -7.054688 7.171875 -7.484375 C 6.847656 -7.910156 6.316406 -8.125 5.578125 -8.125 C 5.097656 -8.125 4.660156 -8.015625 4.265625 -7.796875 C 3.867188 -7.585938 3.5625 -7.304688 3.34375 -6.953125 C 3.125 -6.597656 3.015625 -6.207031 3.015625 -5.78125 L 3.015625 -0.875 C 3.015625 -0.625 2.929688 -0.414062 2.765625 -0.25 C 2.597656 -0.0820312 2.390625 0 2.140625 0 C 1.890625 0 1.679688 -0.078125 1.515625 -0.234375 C 1.359375 -0.398438 1.28125 -0.613281 1.28125 -0.875 L 1.28125 -8.625 C 1.28125 -8.863281 1.363281 -9.066406 1.53125 -9.234375 C 1.695312 -9.410156 1.898438 -9.5 2.140625 -9.5 C 2.390625 -9.5 2.597656 -9.410156 2.765625 -9.234375 C 2.929688 -9.066406 3.015625 -8.863281 3.015625 -8.625 L 3.015625 -8 C 3.328125 -8.476562 3.765625 -8.882812 4.328125 -9.21875 C 4.890625 -9.550781 5.488281 -9.71875 6.125 -9.71875 Z M 6.125 -9.71875 "/>
      </g>
    </g>
  </g>
  <g fill="#231f20" fill-opacity="1">
    <g transform="translate(398.499127, 148.960924)">
      <g>
        <path d="M 8.984375 -9.625 C 9.242188 -9.625 9.453125 -9.539062 9.609375 -9.375 C 9.773438 -9.21875 9.859375 -9.003906 9.859375 -8.734375 L 9.859375 -0.875 C 9.859375 -0.625 9.773438 -0.414062 9.609375 -0.25 C 9.453125 -0.0820312 9.242188 0 8.984375 0 C 8.734375 0 8.53125 -0.078125 8.375 -0.234375 C 8.21875 -0.398438 8.140625 -0.613281 8.140625 -0.875 L 8.140625 -1.34375 C 7.828125 -0.914062 7.394531 -0.550781 6.84375 -0.25 C 6.300781 0.0390625 5.71875 0.1875 5.09375 0.1875 C 4.269531 0.1875 3.519531 -0.0234375 2.84375 -0.453125 C 2.175781 -0.878906 1.648438 -1.46875 1.265625 -2.21875 C 0.890625 -2.976562 0.703125 -3.828125 0.703125 -4.765625 C 0.703125 -5.710938 0.890625 -6.5625 1.265625 -7.3125 C 1.648438 -8.070312 2.175781 -8.660156 2.84375 -9.078125 C 3.507812 -9.503906 4.238281 -9.71875 5.03125 -9.71875 C 5.675781 -9.71875 6.273438 -9.582031 6.828125 -9.3125 C 7.378906 -9.050781 7.816406 -8.710938 8.140625 -8.296875 L 8.140625 -8.734375 C 8.140625 -8.984375 8.21875 -9.191406 8.375 -9.359375 C 8.53125 -9.535156 8.734375 -9.625 8.984375 -9.625 Z M 5.296875 -1.40625 C 5.859375 -1.40625 6.359375 -1.550781 6.796875 -1.84375 C 7.242188 -2.132812 7.585938 -2.535156 7.828125 -3.046875 C 8.078125 -3.554688 8.203125 -4.128906 8.203125 -4.765625 C 8.203125 -5.390625 8.078125 -5.957031 7.828125 -6.46875 C 7.585938 -6.976562 7.242188 -7.378906 6.796875 -7.671875 C 6.359375 -7.972656 5.859375 -8.125 5.296875 -8.125 C 4.722656 -8.125 4.21875 -7.976562 3.78125 -7.6875 C 3.34375 -7.394531 3 -6.992188 2.75 -6.484375 C 2.5 -5.984375 2.375 -5.410156 2.375 -4.765625 C 2.375 -4.128906 2.5 -3.554688 2.75 -3.046875 C 3 -2.535156 3.34375 -2.132812 3.78125 -1.84375 C 4.21875 -1.550781 4.722656 -1.40625 5.296875 -1.40625 Z M 5.296875 -1.40625 "/>
      </g>
    </g>
  </g>
  <g fill="#231f20" fill-opacity="1">
    <g transform="translate(421.441671, 148.960924)">
      <g>
        <path d="M 6.015625 -9.71875 C 6.328125 -9.71875 6.597656 -9.632812 6.828125 -9.46875 C 7.054688 -9.300781 7.171875 -9.097656 7.171875 -8.859375 C 7.171875 -8.566406 7.09375 -8.34375 6.9375 -8.1875 C 6.789062 -8.039062 6.609375 -7.96875 6.390625 -7.96875 C 6.285156 -7.96875 6.125 -8.003906 5.90625 -8.078125 C 5.65625 -8.160156 5.457031 -8.203125 5.3125 -8.203125 C 4.9375 -8.203125 4.566406 -8.070312 4.203125 -7.8125 C 3.847656 -7.5625 3.5625 -7.207031 3.34375 -6.75 C 3.125 -6.300781 3.015625 -5.796875 3.015625 -5.234375 L 3.015625 -0.875 C 3.015625 -0.625 2.929688 -0.414062 2.765625 -0.25 C 2.597656 -0.0820312 2.390625 0 2.140625 0 C 1.890625 0 1.679688 -0.078125 1.515625 -0.234375 C 1.359375 -0.398438 1.28125 -0.613281 1.28125 -0.875 L 1.28125 -8.625 C 1.28125 -8.863281 1.363281 -9.066406 1.53125 -9.234375 C 1.695312 -9.410156 1.898438 -9.5 2.140625 -9.5 C 2.390625 -9.5 2.597656 -9.410156 2.765625 -9.234375 C 2.929688 -9.066406 3.015625 -8.863281 3.015625 -8.625 L 3.015625 -7.703125 C 3.273438 -8.296875 3.671875 -8.773438 4.203125 -9.140625 C 4.734375 -9.515625 5.335938 -9.707031 6.015625 -9.71875 Z M 6.015625 -9.71875 "/>
      </g>
    </g>
  </g>
  <g fill="#231f20" fill-opacity="1">
    <g transform="translate(440.74285, 148.960924)">
      <g>
        <path d="M 8.359375 -9.59375 C 8.609375 -9.59375 8.8125 -9.503906 8.96875 -9.328125 C 9.132812 -9.160156 9.21875 -8.957031 9.21875 -8.71875 L 9.21875 -0.890625 C 9.21875 0.617188 8.800781 1.75 7.96875 2.5 C 7.132812 3.25 6.035156 3.625 4.671875 3.625 C 4.222656 3.625 3.78125 3.582031 3.34375 3.5 C 2.914062 3.414062 2.5625 3.300781 2.28125 3.15625 C 1.832031 2.945312 1.609375 2.664062 1.609375 2.3125 C 1.609375 2.257812 1.625 2.179688 1.65625 2.078125 C 1.726562 1.878906 1.828125 1.722656 1.953125 1.609375 C 2.085938 1.503906 2.238281 1.453125 2.40625 1.453125 C 2.507812 1.453125 2.601562 1.46875 2.6875 1.5 C 3.0625 1.675781 3.390625 1.8125 3.671875 1.90625 C 3.960938 2 4.300781 2.046875 4.6875 2.046875 C 6.5625 2.046875 7.5 1.085938 7.5 -0.828125 L 7.5 -1.203125 C 7.175781 -0.765625 6.753906 -0.421875 6.234375 -0.171875 C 5.722656 0.0664062 5.140625 0.1875 4.484375 0.1875 C 3.472656 0.1875 2.6875 -0.128906 2.125 -0.765625 C 1.5625 -1.410156 1.28125 -2.253906 1.28125 -3.296875 L 1.28125 -8.71875 C 1.28125 -8.96875 1.359375 -9.175781 1.515625 -9.34375 C 1.679688 -9.507812 1.890625 -9.59375 2.140625 -9.59375 C 2.390625 -9.59375 2.597656 -9.503906 2.765625 -9.328125 C 2.929688 -9.160156 3.015625 -8.957031 3.015625 -8.71875 L 3.015625 -3.75 C 3.015625 -2.957031 3.1875 -2.367188 3.53125 -1.984375 C 3.882812 -1.597656 4.414062 -1.40625 5.125 -1.40625 C 5.8125 -1.40625 6.378906 -1.625 6.828125 -2.0625 C 7.273438 -2.5 7.5 -3.0625 7.5 -3.75 L 7.5 -8.71875 C 7.5 -8.96875 7.578125 -9.175781 7.734375 -9.34375 C 7.890625 -9.507812 8.097656 -9.59375 8.359375 -9.59375 Z M 8.359375 -9.59375 "/>
      </g>
    </g>
  </g>
</svg>
